<svg width="80" height="49" viewBox="0 0 80 49" fill="none" xmlns="http://www.w3.org/2000/svg">
<path d="M18.2715 0.75H61.7285C71.4052 0.75 79.25 8.5948 79.25 18.2715L79.2441 18.7236C79.0042 28.1912 71.254 35.792 61.7285 35.792H46.5859L46.3633 36.0332L40.4863 42.4062L34.3135 36.0205L34.0928 35.792H18.2715C8.59487 35.792 0.750161 27.948 0.75 18.2715C0.75 8.5948 8.5948 0.75 18.2715 0.75Z" fill="white" stroke="#E9631A" stroke-width="1.5"/>
<path d="M18.707 14.2344C18.707 14.9225 18.8005 15.5924 18.9873 16.2441C19.1787 16.8958 19.4613 17.4814 19.835 18.001C20.2132 18.516 20.6712 18.9193 21.209 19.2109L20.4434 20.2363C19.8828 19.9219 19.402 19.4889 19.001 18.9375C18.6045 18.3815 18.2946 17.7435 18.0713 17.0234C17.8389 17.8073 17.5107 18.5068 17.0869 19.1221C16.6676 19.7327 16.1686 20.209 15.5898 20.5508L14.7695 19.6074C15.3346 19.2793 15.8177 18.835 16.2188 18.2744C16.6243 17.7139 16.9297 17.0918 17.1348 16.4082C17.3444 15.7201 17.4492 15.0228 17.4492 14.3164V12.0332H18.707V14.2344ZM21.5098 11.1445H22.7539V15.793H24.2305V10.9121H25.4746V23.1621H24.2305V16.8457H22.7539V22.5605H21.5098V11.1445ZM40.1992 15.6152H36.6719V17.0371H41.6211V18.0898H30.4512V17.0371H35.3867V15.6152H31.873V11.418H40.1992V15.6152ZM31.6953 19.252H40.2539V23.1621H38.9414V20.2773H31.6953V19.252ZM38.9141 14.5762V12.4434H33.1445V14.5762H38.9141ZM53.7617 21.7129H42.5508V20.6465H45.5586V17.9258H43.5352V16.873H45.3672V13.0586H43.5078V11.9922H52.7363V13.0586H50.8633V16.873H52.6953V17.9258H50.6855V20.6465H53.7617V21.7129ZM49.5918 16.873V13.0586H46.6523V16.873H49.5918ZM49.3867 20.6465V17.9258H46.8574V20.6465H49.3867ZM61.4043 18.7598H58.793V17.4473H61.4043V14.8359H62.7168V17.4473H65.3418V18.7598H62.7168V21.3711H61.4043V18.7598Z" fill="#E9631A"/>
</svg>
